<?xml version="1.0" standalone="no"?>
<!DOCTYPE svg PUBLIC "-//W3C//DTD SVG 20010904//EN"
 "http://www.w3.org/TR/2001/REC-SVG-20010904/DTD/svg10.dtd">
<svg version="1.0" xmlns="http://www.w3.org/2000/svg"
 width="260.000000pt" height="260.000000pt" viewBox="0 0 260.000000 260.000000"
 preserveAspectRatio="xMidYMid meet">
<metadata>
Created by potrace 1.14, written by Peter Selinger 2001-2017
</metadata>
<g transform="translate(0.000000,260.000000) scale(0.100000,-0.100000)"
fill="#000000" stroke="none">
<path d="M2070 2053 c0 -5 -18 -8 -40 -7 -22 1 -40 -2 -40 -6 0 -4 -16 -7 -35
-8 -20 -1 -43 -8 -51 -17 -14 -14 -29 -19 -46 -16 -5 0 -8 -4 -8 -9 0 -5 -4
-10 -10 -10 -5 0 -37 -27 -70 -60 -33 -33 -58 -60 -55 -60 3 0 -4 -9 -14 -19
-26 -26 -101 -182 -108 -223 -3 -18 -10 -42 -16 -53 -6 -11 -11 -29 -11 -40
-1 -12 -7 -19 -15 -17 -12 3 -12 0 -1 -12 16 -20 6 -20 -23 -2 -16 10 -56 13
-145 12 -68 0 -126 3 -130 8 -3 5 -6 46 -6 90 -1 112 0 113 144 111 72 -1 127
3 147 11 17 7 34 10 37 8 3 -2 4 -1 1 3 -3 3 0 12 5 18 5 7 10 52 10 101 1
186 13 177 -241 177 -141 -1 -199 3 -199 11 0 7 -3 7 -8 -2 -5 -7 -27 -12 -53
-11 -70 2 -91 0 -85 -10 3 -5 -1 -12 -10 -15 -22 -8 -24 -8 -24 7 0 8 -6 14
-12 15 -25 2 -48 8 -54 15 -4 3 -15 2 -25 -4 -14 -7 -19 -6 -19 3 0 8 -3 9 -8
3 -11 -15 -32 -17 -47 -5 -8 6 -16 7 -19 2 -7 -12 -196 -10 -215 2 -9 6 -12 5
-8 -2 5 -7 -37 -11 -132 -11 -79 -1 -142 2 -145 8 -6 9 -18 9 -48 -2 -10 -4
-25 -9 -34 -12 -8 -3 -12 -10 -9 -15 4 -6 1 -9 -7 -8 -7 2 -12 -3 -10 -9 1 -7
-2 -13 -7 -13 -5 0 -8 -45 -5 -102 2 -57 4 -103 5 -103 0 0 2 -10 3 -22 3 -28
7 -32 32 -36 10 -1 25 -6 32 -10 6 -5 12 -5 12 0 0 14 163 10 168 -5 2 -6 8
-10 13 -6 5 3 9 -56 10 -143 0 -81 0 -294 1 -473 0 -179 4 -335 9 -347 6 -15
15 -21 33 -19 14 2 26 -1 26 -6 0 -5 5 -6 11 -2 6 4 43 6 83 5 39 0 78 3 86 9
8 5 11 10 5 10 -5 0 -4 4 4 9 12 8 14 87 13 480 -1 297 2 471 8 471 6 0 10 6
10 14 0 9 9 12 28 9 46 -7 165 0 193 12 10 3 21 1 25 -7 5 -7 10 -230 10 -495
2 -411 4 -485 17 -497 8 -8 17 -12 21 -9 3 4 6 2 6 -3 0 -5 36 -9 80 -9 44 0
80 3 80 6 0 4 8 6 17 5 34 -2 44 46 43 201 0 82 -2 172 -3 201 -2 29 2 57 7
61 6 5 69 9 140 10 111 0 130 3 142 18 13 17 13 17 14 0 0 -10 5 -15 10 -12 6
4 10 -12 10 -39 0 -26 5 -46 11 -46 5 0 8 -3 5 -8 -6 -10 25 -96 60 -169 30
-62 143 -183 171 -183 9 0 25 -8 35 -17 18 -16 25 -19 73 -28 11 -2 40 -8 65
-12 73 -14 255 4 286 28 6 5 14 6 17 3 12 -13 77 54 70 72 -3 8 1 22 8 31 10
12 10 15 2 9 -16 -9 -16 -5 -3 28 7 19 6 26 -3 26 -8 0 -7 4 3 10 13 9 13 10
0 10 -12 0 -13 2 -1 9 11 7 11 9 0 14 -10 4 -10 6 -2 6 9 1 10 8 3 27 -7 16
-7 23 0 19 7 -4 7 2 1 18 -6 14 -7 27 -4 30 7 8 -29 51 -45 55 -7 1 -15 -5
-18 -13 -3 -8 -10 -13 -14 -10 -5 3 -14 0 -22 -7 -15 -15 -35 -21 -60 -20 -10
0 -18 -3 -18 -7 0 -4 -6 -8 -12 -9 -7 -1 -34 -4 -61 -8 -81 -11 -182 38 -232
114 -13 21 -26 46 -27 57 -2 11 -7 26 -11 33 -5 6 -5 12 0 12 4 0 1 5 -7 10
-11 7 -11 10 -2 10 10 0 10 5 2 20 -8 15 -8 20 2 20 8 0 9 3 3 8 -13 9 -16 92
-4 92 5 0 9 5 9 11 0 5 -5 7 -12 3 -6 -4 -8 -3 -5 3 4 6 9 28 13 48 5 33 10
57 18 90 4 18 28 58 47 79 11 11 19 23 19 28 0 4 6 8 14 8 8 0 16 6 19 14 3 8
19 17 36 21 17 4 31 10 31 14 0 4 6 8 13 8 51 3 104 3 117 0 58 -14 109 -34
131 -50 22 -15 31 -17 48 -8 21 12 25 24 23 69 -1 12 3 20 8 17 6 -4 7 3 2 17
-5 13 -7 32 -5 43 8 63 8 85 -1 89 -6 2 -5 5 2 5 7 1 10 6 7 11 -4 6 -9 23
-11 38 -3 15 -17 38 -31 52 -14 14 -22 18 -18 10 6 -10 2 -9 -13 3 -11 11 -25
16 -30 13 -4 -3 -20 1 -35 9 -15 8 -27 11 -27 8 0 -3 -8 1 -17 8 -11 10 -14
10 -9 2 9 -16 -6 -17 -22 -1 -9 9 -12 9 -12 -2 0 -13 -2 -13 -10 0 -8 13 -10
13 -10 1 0 -12 -3 -12 -12 -3 -16 16 -31 15 -22 0 5 -9 2 -9 -9 1 -9 7 -17 9
-17 4z m145 -136 c41 -3 52 -9 62 -28 7 -13 8 -25 3 -27 -5 -2 -6 -10 -3 -19
3 -8 0 -19 -7 -23 -15 -9 -50 -1 -50 12 0 5 -4 6 -10 3 -5 -3 -10 -1 -10 5 0
7 -27 10 -81 9 -64 -1 -92 -7 -132 -27 -29 -14 -55 -30 -59 -36 -4 -6 -8 -7
-8 -2 0 5 -11 -3 -25 -18 -13 -14 -28 -26 -32 -26 -5 0 -17 -17 -28 -37 -11
-21 -24 -41 -30 -45 -5 -4 -6 -8 -1 -8 5 0 1 -9 -9 -20 -10 -11 -15 -20 -12
-20 3 0 -1 -17 -10 -37 -23 -56 -27 -86 -26 -213 1 -135 4 -180 15 -180 4 0 8
-16 8 -35 0 -19 5 -35 11 -35 5 0 7 -4 4 -10 -3 -5 -1 -10 5 -10 7 0 10 -5 8
-12 -2 -6 9 -25 24 -42 15 -17 28 -36 28 -43 0 -6 9 -14 19 -18 11 -3 22 -12
25 -21 3 -8 17 -19 31 -24 16 -6 23 -14 19 -22 -4 -6 -3 -8 3 -5 5 3 26 2 47
-4 48 -13 156 -17 156 -6 0 5 8 3 17 -4 11 -10 14 -10 9 -1 -5 8 2 12 26 13
18 0 43 2 56 3 17 2 22 -2 22 -19 0 -11 -6 -27 -12 -34 -11 -11 -10 -12 1 -6
9 5 12 4 8 -2 -4 -6 -27 -14 -52 -17 -25 -4 -43 -10 -41 -14 5 -8 -17 -10
-114 -12 -69 -1 -79 0 -123 18 -16 7 -37 12 -48 12 -11 0 -22 7 -25 15 -4 8
-9 13 -13 11 -4 -3 -27 11 -50 30 -24 19 -41 34 -37 34 6 0 -1 10 -30 43 -20
22 -54 95 -54 115 0 10 -4 22 -9 27 -17 18 -24 78 -27 229 -3 99 0 154 7 163
9 10 8 13 -1 13 -9 0 -10 3 -1 13 6 8 12 22 14 33 9 43 21 81 38 112 10 17 15
32 11 32 -4 0 1 5 11 11 9 5 17 15 17 20 0 6 6 16 13 24 6 7 28 32 47 54 19
22 39 41 43 41 4 0 17 9 29 20 12 10 25 17 29 14 4 -2 10 0 14 6 3 5 15 10 26
10 10 0 19 4 19 9 0 5 8 8 18 7 9 -2 27 0 40 3 23 6 93 5 187 -2z m-1863 -6
c10 5 18 6 18 2 0 -4 111 -8 247 -7 204 1 250 -2 262 -14 10 -9 12 -19 5 -29
-5 -8 -12 -13 -15 -11 -3 2 -13 -3 -22 -11 -10 -7 -17 -9 -17 -5 0 7 -134 10
-157 5 -2 -1 -4 0 -6 2 -1 1 -10 -5 -19 -13 -14 -13 -16 -66 -16 -490 0 -261
-1 -486 -1 -499 -1 -16 -5 -21 -16 -17 -8 3 -15 0 -16 -7 0 -8 -2 -9 -5 -1 -3
7 -13 10 -23 7 -19 -5 -58 26 -44 36 11 8 11 151 0 151 -5 0 -4 7 3 15 10 12
10 15 -1 15 -9 0 -10 3 -4 8 13 9 13 125 0 134 -6 5 -6 8 1 8 10 0 10 49 0
118 -2 12 0 22 4 22 3 0 4 23 0 50 -4 28 -3 50 1 50 4 0 5 8 3 18 -9 38 -10
178 -1 196 6 12 6 16 -1 12 -7 -4 -9 15 -6 56 3 50 0 69 -16 96 -11 17 -25 33
-32 33 -7 1 -51 2 -98 4 -47 2 -92 3 -101 4 -10 1 -16 11 -16 31 0 16 3 28 6
26 3 -2 15 0 26 4 11 4 24 4 29 -1 5 -4 17 -4 28 2z m778 -6 c0 -5 5 -3 10 5
5 8 10 11 10 5 0 -13 160 -13 160 0 0 5 4 5 10 -1 5 -5 40 -7 81 -4 55 4 75 2
88 -10 17 -15 21 -33 10 -44 -3 -3 -71 -7 -151 -9 -180 -4 -183 -6 -192 -115
-2 -23 0 -45 4 -47 5 -3 4 -21 0 -40 -4 -19 -5 -35 -1 -35 3 0 6 -18 6 -40 0
-22 -4 -40 -8 -40 -5 0 -5 -6 0 -12 11 -18 11 -31 1 -45 -5 -6 -5 -14 2 -18 5
-3 10 -17 10 -30 0 -13 5 -27 11 -31 6 -3 73 -8 148 -10 l136 -3 6 -31 c8 -38
-18 -59 -48 -38 -6 5 -14 4 -18 -2 -5 -8 -11 -8 -21 1 -8 6 -14 8 -14 3 0 -5
-37 -10 -83 -11 -116 -2 -114 -2 -115 -15 -2 -22 -7 -42 -14 -53 -4 -6 -3 -17
2 -25 4 -7 4 -24 0 -36 -5 -13 -6 -25 -2 -28 9 -5 7 -89 -2 -104 -4 -7 -3 -12
3 -12 10 0 10 -18 -2 -37 -4 -6 -2 -15 4 -19 8 -4 7 -9 -2 -15 -8 -5 -9 -9 -4
-9 14 0 16 -118 2 -123 -10 -4 -52 -2 -78 2 -3 1 -6 240 -7 531 0 292 3 528 8
525 4 -3 6 3 4 12 -4 14 1 18 20 18 15 0 26 -4 26 -10z"/>
</g>
</svg>
